<?xml version="1.0" encoding="utf-8"?>
<!-- Generator: Adobe Illustrator 28.1.0, SVG Export Plug-In . SVG Version: 6.00 Build 0)  -->
<svg version="1.1" id="_x31_" xmlns="http://www.w3.org/2000/svg" xmlns:xlink="http://www.w3.org/1999/xlink" x="0px" y="0px"
	 viewBox="0 0 600 400" enable-background="new 0 0 600 400" xml:space="preserve">
<rect fill="#FFFFFF" width="600" height="400"/>
<rect width="600" height="120"/>
<rect y="280" fill="#006600" width="600" height="120"/>
<rect y="140" fill="#BB0000" width="600" height="120"/>
<path fill="#FFFFFF" d="M381.021515,59.862804c0,0-15.954102,12.981899-26.120117,30.186497
	c-10.165985,17.204597-10.4776,19.237801-9.696289,26.432602L228.366196,318.717804l4.69191,2.34671l116.367706-201.921906
	c0,0,7.195282,0.780296,17.987274-21.585999C379.541992,72.420403,381.021515,59.862804,381.021515,59.862804z"/>
<path fill="#FFFFFF" d="M219.199203,59.862804c0,0,15.954102,12.981899,26.120102,30.186497
	c10.166092,17.204597,10.4776,19.237801,9.696289,26.432602l116.838898,202.235901l-4.691406,2.34671L250.794907,119.142601
	c0,0-7.195312,0.780296-17.987305-21.585999C220.678696,72.420403,219.199203,59.862804,219.199203,59.862804z"/>
<path fill="#BB0000" d="M347.50589,141.759293c-13.007904-33.127991-33.340881-60.875488-47.395111-60.875488
	c-14.054169,0-34.387665,27.747498-47.395477,60.875488c7.513184,19.134308,12.584503,40.062012,12.584503,58.479019
	s-5.07132,39.344681-12.584503,58.478485c13.007812,33.127899,33.341309,60.876007,47.395477,60.876007
	c14.05423,0,34.387207-27.748108,47.395111-60.876007c-7.512695-19.133804-12.583984-40.061493-12.583984-58.478485
	S339.993195,160.8936,347.50589,141.759293z"/>
<path d="M347.50589,141.759293c-7.512695,19.134308-12.583984,40.062012-12.583984,58.479019
	s5.071289,39.344681,12.583984,58.478485c7.513611-19.133804,12.5849-40.061493,12.5849-58.478485
	S355.019501,160.8936,347.50589,141.759293z"/>
<path d="M252.715302,141.759293c-7.513199,19.134308-12.584396,40.062012-12.584396,58.479019
	s5.071198,39.344681,12.584396,58.478485c7.513184-19.133804,12.584503-40.061493,12.584503-58.478485
	S260.228485,160.8936,252.715302,141.759293z"/>
<path fill="#FFFFFF" d="M302.5,81.1045v106.769005c6.032196-17.789001,9.938507-36.591309,9.938507-53.385208
	C312.438507,117.695801,308.532196,98.893997,302.5,81.1045z"/>
<path fill="#FFFFFF" d="M302.5,212.6035v106.7686c6.032196-17.7901,9.938507-36.590912,9.938507-53.383789
	C312.438507,249.194305,308.532196,230.392593,302.5,212.6035z"/>
<path fill="#FFFFFF" d="M297.720703,81.1045v106.769005c-6.032227-17.789001-9.938507-36.591309-9.938507-53.385208
	C287.782196,117.695801,291.688477,98.893997,297.720703,81.1045z"/>
<path fill="#FFFFFF" d="M297.720703,212.6035v106.7686c-6.032227-17.7901-9.938507-36.590912-9.938507-53.383789
	C287.782196,249.194305,291.688477,230.392593,297.720703,212.6035z"/>
<path fill="#FFFFFF" d="M310.287109,200.238312c0,8.504883-4.55661,15.399384-10.176727,15.399384
	c-5.620178,0-10.17627-6.894501-10.17627-15.399384c0-8.504898,4.556091-15.399414,10.17627-15.399414
	C305.730499,184.838898,310.287109,191.733414,310.287109,200.238312z"/>
</svg>
